<?xml version="1.0" encoding="UTF-8" standalone="no"?>
<!-- Created with Inkscape (http://www.inkscape.org/) -->

<svg
   xmlns:dc="http://purl.org/dc/elements/1.1/"
   xmlns:cc="http://creativecommons.org/ns#"
   xmlns:rdf="http://www.w3.org/1999/02/22-rdf-syntax-ns#"
   xmlns:svg="http://www.w3.org/2000/svg"
   xmlns="http://www.w3.org/2000/svg"
   xmlns:sodipodi="http://sodipodi.sourceforge.net/DTD/sodipodi-0.dtd"
   xmlns:inkscape="http://www.inkscape.org/namespaces/inkscape"
   width="210mm"
   height="297mm"
   viewBox="0 0 210 297"
   version="1.1"
   id="svg5147"
   inkscape:version="0.92.2 5c3e80d, 2017-08-06"
   sodipodi:docname="poex-triangle-drawing.svg">
  <defs
     id="defs5141" />
  <sodipodi:namedview
     id="base"
     pagecolor="#ffffff"
     bordercolor="#666666"
     borderopacity="1.0"
     inkscape:pageopacity="0.0"
     inkscape:pageshadow="2"
     inkscape:zoom="0.49497475"
     inkscape:cx="577.93303"
     inkscape:cy="416.99838"
     inkscape:document-units="mm"
     inkscape:current-layer="layer1"
     showgrid="false"
     inkscape:snap-bbox="true"
     inkscape:snap-bbox-midpoints="true"
     inkscape:snap-intersection-paths="true"
     inkscape:snap-smooth-nodes="true"
     inkscape:snap-object-midpoints="true"
     inkscape:snap-center="true"
     inkscape:window-width="1280"
     inkscape:window-height="751"
     inkscape:window-x="0"
     inkscape:window-y="1"
     inkscape:window-maximized="1" />
  <metadata
     id="metadata5144">
    <rdf:RDF>
      <cc:Work
         rdf:about="">
        <dc:format>image/svg+xml</dc:format>
        <dc:type
           rdf:resource="http://purl.org/dc/dcmitype/StillImage" />
        <dc:title></dc:title>
      </cc:Work>
    </rdf:RDF>
  </metadata>
  <g
     inkscape:label="Layer 1"
     inkscape:groupmode="layer"
     id="layer1">
    <path
       style="display:inline;fill:none;stroke:#000000;stroke-width:2;stroke-opacity:1"
       inkscape:transform-center-x="2.5644874e-06"
       inkscape:transform-center-y="-4.8066944"
       d="m 21.869807,94.653827 16.65092,-28.840238 16.650904,28.84023 z"
       id="path5130"
       inkscape:connector-curvature="0" />
    <path
       style="display:inline;fill:none;stroke:#000000;stroke-width:2;stroke-opacity:1"
       inkscape:transform-center-x="2.5644874e-06"
       inkscape:transform-center-y="-4.8066944"
       d="m 21.49183,51.942518 8.32546,-14.42012 8.32546,-14.420117 8.32545,14.420127 8.32545,14.4201 -16.65091,2e-5 z"
       id="path5155"
       inkscape:connector-curvature="0"
       sodipodi:nodetypes="ccccccc" />
    <path
       style="fill:none;stroke:#000000;stroke-width:0.26458332px;stroke-linecap:butt;stroke-linejoin:miter;stroke-opacity:1"
       d="m 38.52072,85.040396 8e-6,-19.22681 v 0 l -16.650921,28.84024 z"
       id="path5163"
       inkscape:connector-curvature="0" />
    <path
       style="fill:none;stroke:#000000;stroke-width:0.26458332px;stroke-linecap:butt;stroke-linejoin:miter;stroke-opacity:1"
       d="m 55.171632,94.653816 -16.650904,-28.84023 -8e-6,19.22681 z"
       id="path5165"
       inkscape:connector-curvature="0" />
    <path
       style="fill:none;stroke:#000000;stroke-width:0.26458332px;stroke-linecap:butt;stroke-linejoin:miter;stroke-opacity:1"
       d="M 55.171632,94.653816 38.52072,85.040396 21.869808,94.653826 Z"
       id="path5167"
       inkscape:connector-curvature="0" />
    <path
       inkscape:connector-curvature="0"
       id="path5169"
       d="m 21.869807,137.36514 16.65092,-28.84024 16.650904,28.84023 z"
       inkscape:transform-center-y="-4.8066944"
       inkscape:transform-center-x="2.5644874e-06"
       style="display:inline;fill:none;stroke:#000000;stroke-width:2;stroke-opacity:1" />
    <path
       inkscape:connector-curvature="0"
       id="path5171"
       d="m 38.52072,127.75171 8e-6,-19.22681 v 0 l -16.650921,28.84024 z"
       style="fill:#e6e6e6;stroke:#000000;stroke-width:0.26458332px;stroke-linecap:butt;stroke-linejoin:miter;stroke-opacity:1" />
    <path
       inkscape:connector-curvature="0"
       id="path5173"
       d="m 55.171632,137.36513 -16.650904,-28.84023 -8e-6,19.22681 z"
       style="fill:#f9f9f9;stroke:#000000;stroke-width:0.26458332px;stroke-linecap:butt;stroke-linejoin:miter;stroke-opacity:1" />
    <path
       inkscape:connector-curvature="0"
       id="path5175"
       d="M 55.171632,137.36513 38.52072,127.75171 21.869808,137.36514 Z"
       style="fill:#b3b3b3;stroke:#000000;stroke-width:0.26458332px;stroke-linecap:butt;stroke-linejoin:miter;stroke-opacity:1" />
    <path
       style="display:inline;fill:none;stroke:#000000;stroke-width:2;stroke-opacity:1"
       inkscape:transform-center-x="-5.2542094e-06"
       inkscape:transform-center-y="4.8066979"
       d="m 125.30671,137.72731 -16.65092,-28.84024 33.30182,3e-5 z"
       id="path5177"
       inkscape:connector-curvature="0" />
    <path
       style="fill:#e6e6e6;stroke:#000000;stroke-width:0.26458332px;stroke-linecap:butt;stroke-linejoin:miter;stroke-opacity:1"
       d="m 125.3067,118.50049 -16.65091,-9.61342 v 0 l 16.65092,28.84024 z"
       id="path5179"
       inkscape:connector-curvature="0" />
    <path
       style="fill:#f9f9f9;stroke:#000000;stroke-width:0.26458332px;stroke-linecap:butt;stroke-linejoin:miter;stroke-opacity:1"
       d="m 141.95761,108.8871 -33.30182,-3e-5 16.65091,9.61342 z"
       id="path5181"
       inkscape:connector-curvature="0" />
    <path
       style="fill:#b3b3b3;stroke:#000000;stroke-width:0.26458332px;stroke-linecap:butt;stroke-linejoin:miter;stroke-opacity:1"
       d="m 141.95761,108.8871 -16.65091,9.61339 10e-6,19.22682 z"
       id="path5183"
       inkscape:connector-curvature="0" />
    <path
       style="display:inline;fill:none;stroke:#000000;stroke-width:4;stroke-opacity:1;stroke-miterlimit:4;stroke-dasharray:none;stroke-linejoin:round"
       inkscape:transform-center-x="2.5644874e-06"
       inkscape:transform-center-y="-4.8066944"
       d="m 21.869807,181.58835 16.65092,-28.84024 16.650904,28.84023 z"
       id="path5185"
       inkscape:connector-curvature="0" />
    <path
       style="fill:#e6e6e6;stroke:#000000;stroke-width:0.26458332px;stroke-linecap:butt;stroke-linejoin:miter;stroke-opacity:1"
       d="m 38.52072,171.97492 8e-6,-19.22681 v 0 l -16.650921,28.84024 z"
       id="path5187"
       inkscape:connector-curvature="0" />
    <path
       style="fill:#f9f9f9;stroke:#000000;stroke-width:0.26458332px;stroke-linecap:butt;stroke-linejoin:miter;stroke-opacity:1"
       d="m 55.171632,181.58834 -16.650904,-28.84023 -8e-6,19.22681 z"
       id="path5189"
       inkscape:connector-curvature="0" />
    <path
       style="fill:#b3b3b3;stroke:#000000;stroke-width:0.26458332px;stroke-linecap:butt;stroke-linejoin:miter;stroke-opacity:1"
       d="M 55.171632,181.58834 38.52072,171.97492 21.869808,181.58835 Z"
       id="path5191"
       inkscape:connector-curvature="0" />
    <path
       style="fill:#000000;stroke-width:0.07525077"
       d="m 48.231824,282.21284 c -0.188595,-0.13024 -0.921946,-1.34198 -3.176554,-5.24874 -4.611566,-7.9909 -5.421373,-9.39297 -6.595133,-11.41855 l -1.100599,-1.89933 -10.73812,-0.0196 -10.738121,-0.0196 -0.201329,-0.18813 c -0.261128,-0.244 -0.412785,-0.54092 -0.412785,-0.80815 0,-0.22324 0.116003,-0.4279 6.771783,-11.94685 1.96098,-3.39381 3.642821,-6.30754 3.737425,-6.47494 l 0.172007,-0.30438 -1.473671,-2.55515 c -2.882717,-4.99825 -4.867543,-8.4343 -5.257726,-9.10197 -0.217683,-0.37249 -0.785626,-1.35451 -1.262097,-2.18227 -0.476466,-0.82776 -1.276123,-2.21494 -1.777013,-3.08262 -0.620377,-1.07467 -0.910708,-1.65081 -0.910708,-1.8072 0,-0.33138 0.235372,-0.72111 0.531395,-0.87987 0.244851,-0.13131 0.735747,-0.1375 10.908323,-0.1375 h 10.651931 l 0.42246,-0.73369 c 0.505563,-0.87802 1.07558,-1.86484 4.987858,-8.63502 1.650259,-2.85577 3.498385,-6.05581 4.106945,-7.1112 1.185043,-2.05515 1.352907,-2.25778 1.869991,-2.25724 0.508085,5.7e-4 0.684492,0.19036 1.513841,1.62906 0.425819,0.73869 0.951843,1.64783 1.168943,2.02032 0.870697,1.49391 1.810199,3.11822 5.190408,8.97365 l 3.52954,6.11412 h 10.639329 c 9.698645,0 10.662291,0.0109 10.899022,0.12324 0.289457,0.13736 0.553187,0.57163 0.553187,0.91093 0,0.13692 -0.422784,0.94686 -1.189807,2.27933 -0.976675,1.69668 -4.514216,7.82244 -8.429088,14.59619 -0.394682,0.68289 -0.794818,1.37798 -0.889193,1.54463 l -0.171591,0.303 0.886903,1.54065 c 0.876547,1.52266 4.093904,7.09577 5.190192,8.99047 3.810454,6.58552 4.602584,7.99313 4.602584,8.17868 0,0.28557 -0.198966,0.67157 -0.438865,0.85141 -0.198284,0.14864 -0.333405,0.15075 -10.927169,0.17006 l -10.726403,0.0196 -2.118271,3.66772 c -1.16505,2.01725 -3.555061,6.15664 -5.311136,9.19866 -3.411571,5.90978 -3.384392,5.86955 -3.964744,5.86955 -0.16625,0 -0.377702,-0.0683 -0.523944,-0.16931 z m 2.819194,-6.73495 c 1.237494,-2.14182 2.408619,-4.16513 2.602498,-4.49624 0.193878,-0.3311 0.819544,-1.4147 1.390371,-2.40802 0.570825,-0.99331 1.449375,-2.51713 1.952332,-3.38628 0.502957,-0.86915 1.568739,-2.71467 2.368404,-4.10117 0.799662,-1.38648 2.007569,-3.47535 2.684238,-4.64189 0.676667,-1.16654 1.230304,-2.1401 1.230304,-2.16346 0,-0.0233 -6.535527,-0.0425 -14.523397,-0.0425 -7.987868,0 -14.523394,0.0194 -14.523394,0.0431 0,0.0237 0.179808,0.35384 0.399576,0.73369 2.292728,3.96282 5.832789,10.08843 7.465973,12.91888 1.110465,1.92454 2.616511,4.53198 3.346765,5.79432 0.730255,1.26232 1.76221,3.04859 2.293236,3.96947 0.531026,0.92089 0.987462,1.67433 1.014303,1.67433 0.02685,0 1.061296,-1.7524 2.298791,-3.89423 z M 36.188894,261.6476 c 0,-0.0223 -0.512744,-0.92816 -1.139429,-2.01296 -2.217366,-3.83829 -3.097356,-5.35889 -3.113357,-5.37984 -0.01473,-0.0193 -12.298479,7.33083 -12.371361,7.40255 -0.01724,0.017 3.716134,0.0309 8.296396,0.0309 4.580264,0 8.327751,-0.0183 8.327751,-0.0406 z m 41.346526,-0.0257 c -0.06942,-0.0644 -2.489895,-1.57515 -8.875825,-5.53981 -0.786371,-0.48821 -1.773772,-1.10277 -2.194227,-1.36568 -0.420452,-0.2629 -0.792944,-0.47689 -0.827756,-0.47552 -0.03482,0.001 -0.415504,0.61936 -0.845975,1.37333 -0.430473,0.75396 -0.874768,1.52322 -0.987321,1.70947 -0.429779,0.71115 -2.481671,4.28701 -2.481671,4.32484 0,0.0218 3.663959,0.0397 8.142132,0.0397 4.702366,0 8.111932,-0.028 8.070643,-0.0663 z m 1.22067,-1.34462 c -0.01849,-0.031 -0.286631,-0.49666 -0.595875,-1.0347 -0.309242,-0.53804 -1.372952,-2.38356 -2.363796,-4.10117 -0.990848,-1.71759 -2.595624,-4.50149 -3.566172,-6.18644 -0.970548,-1.68493 -1.781565,-3.06412 -1.802259,-3.06484 -0.02071,-8.5e-4 -0.175095,0.24347 -0.343115,0.54264 -0.168016,0.29916 -1.027556,1.79284 -1.910085,3.31927 -0.882531,1.52643 -1.608564,2.82481 -1.613408,2.88529 -0.0096,0.12041 -0.08472,0.072 5.634999,3.63256 2.152173,1.33972 4.488708,2.79871 5.192302,3.24221 1.216654,0.76687 1.444277,0.89425 1.367409,0.76518 z m -53.735296,-3.88692 c 3.307382,-1.98261 6.022507,-3.61147 6.033607,-3.61969 0.03065,-0.0227 -3.927645,-6.88064 -3.97085,-6.87971 -0.02071,5.7e-4 -0.459007,0.73594 -0.974027,1.63441 -0.515022,0.89849 -1.415918,2.46325 -2.001992,3.47726 -1.266361,2.191 -1.93953,3.35689 -2.932792,5.07942 -0.405714,0.70359 -1.085567,1.88243 -1.510787,2.61964 -0.425216,0.73719 -0.7469,1.32979 -0.714853,1.31689 0.03205,-0.0129 2.764308,-1.64562 6.071694,-3.62822 z m 37.392987,-4.19964 c -0.08277,-0.0476 -1.267975,-0.76308 -2.633777,-1.58991 -1.365799,-0.82684 -2.889629,-1.74699 -3.386284,-2.04479 -0.496655,-0.2978 -1.292432,-0.77871 -1.768391,-1.06869 -4.715405,-2.87285 -5.530897,-3.34548 -5.641943,-3.26988 -0.1187,0.0808 -4.332973,2.54453 -10.346589,6.04869 l -3.459278,2.01575 13.693381,-0.002 c 10.361787,-0.002 13.656766,-0.0233 13.542881,-0.0889 z m -27.797497,-4.5368 c 1.122969,-1.94523 2.990496,-5.17913 4.150063,-7.18645 1.159567,-2.0073 2.497727,-4.32691 2.973686,-5.15467 0.475958,-0.82776 1.092293,-1.89444 1.369632,-2.3704 0.277339,-0.47596 0.90431,-1.55957 1.393271,-2.40802 0.488959,-0.84846 1.256451,-2.1751 1.705542,-2.94811 0.449089,-0.77299 0.816525,-1.42486 0.816525,-1.44857 0,-0.0237 -6.535528,-0.0431 -14.523397,-0.0431 -7.987868,0 -14.523396,0.0175 -14.523396,0.0389 0,0.0214 0.249734,0.47006 0.554968,0.99707 0.84884,1.46561 6.093779,10.54166 6.707068,11.60619 0.298056,0.51735 0.873485,1.51631 1.278732,2.21989 0.405248,0.7036 1.216844,2.10891 1.803547,3.12291 0.586703,1.01401 1.756035,3.03815 2.598519,4.4981 0.842483,1.45994 1.559171,2.64514 1.592637,2.63377 0.03347,-0.0114 0.979639,-1.61223 2.102603,-3.55746 z m 30.674052,3.17935 c 0.119052,-0.21729 1.606953,-2.79933 3.306444,-5.73787 3.12946,-5.41106 7.795223,-13.4879 9.302629,-16.10366 0.453168,-0.78638 1.006188,-1.74112 1.228931,-2.12165 0.222743,-0.38054 0.404989,-0.7107 0.404989,-0.7337 0,-0.023 -6.535528,-0.0418 -14.523395,-0.0418 -7.987871,0 -14.523398,0.0167 -14.523398,0.0372 0,0.0205 1.207988,2.12841 2.684417,4.68435 2.76715,4.79041 3.460541,5.99122 4.72571,8.18396 0.405958,0.7036 0.982519,1.70256 1.281243,2.21991 0.298724,0.51735 1.245481,2.15969 2.103906,3.64965 0.858425,1.48997 1.739446,3.0138 1.957826,3.38629 0.218377,0.37249 0.693326,1.19366 1.05544,1.82483 0.362114,0.63117 0.685482,1.14757 0.718596,1.14757 0.03311,0 0.157612,-0.17778 0.276662,-0.39506 z m -23.833891,-4.19684 c 3.0834,-1.78928 5.834755,-3.38589 6.114125,-3.54803 l 0.507941,-0.29479 v -7.18313 c 0,-3.95072 -0.0254,-7.18195 -0.05644,-7.18051 -0.03104,0.001 -0.722221,1.16124 -1.535956,2.57734 -0.813736,1.4161 -2.350165,4.08162 -3.41429,5.92338 -1.064126,1.84177 -2.25684,3.9074 -2.650479,4.5903 -0.815301,1.41442 -1.488977,2.58001 -2.674796,4.62791 -1.629431,2.81402 -2.234915,3.8744 -2.234915,3.91397 0,0.0221 0.07619,-0.008 0.169313,-0.0665 0.09312,-0.0587 2.692096,-1.57064 5.775494,-3.35992 z m 20.12448,2.6542 c -0.154788,-0.27937 -0.711698,-1.26986 -1.237583,-2.20108 -0.525884,-0.93124 -1.930585,-3.42015 -3.121556,-5.53093 -5.376965,-9.5297 -7.357461,-13.0235 -7.420081,-13.08976 -0.03977,-0.0421 -0.04859,2.82969 -0.0215,6.99832 0.04534,6.97668 0.04795,7.07118 0.197829,7.18257 0.08353,0.0621 2.306222,1.41222 4.939302,3.00033 2.633081,1.58809 5.244566,3.16724 5.803306,3.5092 0.558737,0.34198 1.044194,0.62571 1.078799,0.63053 0.0346,0.005 -0.06373,-0.21981 -0.218515,-0.49918 z M 48.003261,216.93656 c 0,-4.40269 -0.02699,-7.17371 -0.06947,-7.13 -0.06774,0.0697 -0.665527,1.08889 -2.072239,3.53301 -0.815208,1.41641 -2.766667,4.79204 -4.633023,8.01421 -0.731173,1.26234 -1.386231,2.40521 -1.455687,2.53972 l -0.126285,0.24456 h 4.178349 4.17835 z m 9.736289,6.95694 c -0.06898,-0.13451 -0.538907,-0.95568 -1.044274,-1.82483 -0.505363,-0.86915 -2.265435,-3.9168 -3.911266,-6.77258 -1.645831,-2.85576 -3.026633,-5.22616 -3.068442,-5.26754 -0.05119,-0.0507 -0.06063,1.01854 -0.02887,3.27341 0.02594,1.84175 0.04719,5.03333 0.04724,7.09237 l 9.4e-5,3.74373 h 4.065472 4.065475 z"
       id="path5890"
       inkscape:connector-curvature="0" />
    <path
       inkscape:connector-curvature="0"
       id="path5892"
       d="m 106.53647,50.052636 16.65092,-28.84024 16.65091,28.84023 z"
       inkscape:transform-center-y="-4.8066944"
       inkscape:transform-center-x="2.5644874e-06"
       style="display:inline;fill:none;stroke:#000000;stroke-width:4;stroke-linejoin:round;stroke-miterlimit:4;stroke-dasharray:none;stroke-opacity:1" />
    <path
       inkscape:connector-curvature="0"
       id="path5894"
       d="m 126.14571,145.28892 16.65093,28.84023 -33.30182,-2e-5 z"
       inkscape:transform-center-x="-5.6e-06"
       style="display:inline;fill:none;stroke:#000000;stroke-width:4;stroke-linejoin:round;stroke-miterlimit:4;stroke-dasharray:none;stroke-opacity:1"
       inkscape:transform-center-y="-4.8066984" />
    <path
       inkscape:connector-curvature="0"
       id="path5896"
       d="m 126.14573,164.51572 16.65091,9.61343 v 0 l -16.65093,-28.84023 z"
       style="fill:#e6e6e6;stroke:#000000;stroke-width:0.26458332px;stroke-linecap:butt;stroke-linejoin:miter;stroke-opacity:1" />
    <path
       inkscape:connector-curvature="0"
       id="path5898"
       d="m 109.4948,174.12914 33.30184,1e-5 -16.65091,-9.61343 z"
       style="fill:#f9f9f9;stroke:#000000;stroke-width:0.26458332px;stroke-linecap:butt;stroke-linejoin:miter;stroke-opacity:1" />
    <path
       inkscape:connector-curvature="0"
       id="path5900"
       d="m 109.4948,174.12914 16.65093,-9.61342 -2e-5,-19.2268 z"
       style="fill:#b3b3b3;stroke:#000000;stroke-width:0.26458332px;stroke-linecap:butt;stroke-linejoin:miter;stroke-opacity:1" />
    <path
       inkscape:connector-curvature="0"
       id="path5902"
       d="m 111.14816,253.42608 16.65092,-28.84024 16.65091,28.84023 z"
       inkscape:transform-center-y="-4.8066944"
       inkscape:transform-center-x="2.5644874e-06"
       style="display:inline;fill:none;stroke:#000000;stroke-width:4;stroke-linejoin:round;stroke-miterlimit:4;stroke-dasharray:none;stroke-opacity:1" />
    <path
       inkscape:connector-curvature="0"
       id="path5904"
       d="m 127.79907,243.81265 1e-5,-19.22681 v 0 l -16.65092,28.84024 z"
       style="fill:#ffffff;fill-opacity:1;stroke:#000000;stroke-width:2;stroke-linecap:butt;stroke-linejoin:round;stroke-opacity:1" />
    <path
       inkscape:connector-curvature="0"
       id="path5906"
       d="m 144.44999,253.42607 -16.65091,-28.84023 -1e-5,19.22681 z"
       style="fill:#ffffff;fill-opacity:1;stroke:#000000;stroke-width:2;stroke-linecap:butt;stroke-linejoin:round;stroke-opacity:1" />
    <path
       inkscape:connector-curvature="0"
       id="path5908"
       d="m 144.44999,253.42607 -16.65092,-9.61342 -16.65091,9.61343 z"
       style="fill:#ffffff;fill-opacity:1;stroke:#000000;stroke-width:2;stroke-linecap:butt;stroke-linejoin:round;stroke-opacity:1" />
    <path
       style="display:inline;fill:none;stroke:#000000;stroke-width:4;stroke-linejoin:round;stroke-miterlimit:4;stroke-dasharray:none;stroke-opacity:1"
       inkscape:transform-center-x="-7.7061378e-06"
       d="m 142.79673,154.90226 -16.65092,28.84025 -16.65089,-28.84023 z"
       id="path5910"
       inkscape:connector-curvature="0"
       inkscape:transform-center-y="4.8067" />
    <path
       style="fill:#e6e6e6;stroke:#000000;stroke-width:0.26458332px;stroke-linecap:butt;stroke-linejoin:miter;stroke-opacity:1"
       d="m 126.14583,164.5157 -2e-5,19.22681 v 0 l 16.65092,-28.84025 z"
       id="path5912"
       inkscape:connector-curvature="0" />
    <path
       style="fill:#f9f9f9;stroke:#000000;stroke-width:0.26458332px;stroke-linecap:butt;stroke-linejoin:miter;stroke-opacity:1"
       d="m 109.49489,154.90226 16.65092,28.84025 2e-5,-19.22681 z"
       id="path5914"
       inkscape:connector-curvature="0" />
    <path
       style="fill:#b3b3b3;stroke:#000000;stroke-width:0.26458332px;stroke-linecap:butt;stroke-linejoin:miter;stroke-opacity:1"
       d="m 109.49489,154.90226 16.65094,9.61344 16.6509,-9.61344 z"
       id="path5916"
       inkscape:connector-curvature="0" />
    <path
       inkscape:transform-center-y="4.8067"
       inkscape:connector-curvature="0"
       id="path5918"
       d="M 195.71343,159.70885 179.06251,188.5491 162.41162,159.70887 Z"
       inkscape:transform-center-x="-7.7061378e-06"
       style="display:inline;fill:#000000;fill-opacity:1;stroke:#000000;stroke-width:4;stroke-linejoin:round;stroke-miterlimit:4;stroke-dasharray:none;stroke-opacity:1" />
    <g
       id="g5932"
       transform="translate(-73.273823,-2.652645)">
      <path
         style="display:inline;fill:none;stroke:#000000;stroke-width:4;stroke-linejoin:round;stroke-miterlimit:4;stroke-dasharray:none;stroke-opacity:1"
         inkscape:transform-center-x="2.5644874e-06"
         inkscape:transform-center-y="-4.8066944"
         d="m 235.68543,181.58835 16.65092,-28.84024 16.6509,28.84023 z"
         id="path5920"
         inkscape:connector-curvature="0" />
      <path
         style="fill:#e6e6e6;stroke:#000000;stroke-width:0.26458332px;stroke-linecap:butt;stroke-linejoin:miter;stroke-opacity:1"
         d="m 252.33634,171.97492 1e-5,-19.22681 v 0 l -16.65092,28.84024 z"
         id="path5922"
         inkscape:connector-curvature="0" />
      <path
         style="fill:#f9f9f9;stroke:#000000;stroke-width:0.26458332px;stroke-linecap:butt;stroke-linejoin:miter;stroke-opacity:1"
         d="m 268.98725,181.58834 -16.6509,-28.84023 -1e-5,19.22681 z"
         id="path5924"
         inkscape:connector-curvature="0" />
      <path
         style="fill:#b3b3b3;stroke:#000000;stroke-width:0.26458332px;stroke-linecap:butt;stroke-linejoin:miter;stroke-opacity:1"
         d="m 268.98725,181.58834 -16.65091,-9.61342 -16.65091,9.61343 z"
         id="path5926"
         inkscape:connector-curvature="0" />
    </g>
    <path
       style="display:inline;fill:#000000;fill-opacity:1;stroke:#000000;stroke-width:4;stroke-linejoin:round;stroke-miterlimit:4;stroke-dasharray:none;stroke-opacity:1"
       inkscape:transform-center-x="-7.7061378e-06"
       d="m 195.71343,211.82641 -16.65092,28.84025 -16.65089,-28.84023 z"
       id="path5934"
       inkscape:connector-curvature="0"
       inkscape:transform-center-y="4.8067" />
    <path
       style="display:inline;fill:#ffffff;stroke:#000000;stroke-width:4;stroke-linejoin:round;stroke-miterlimit:4;stroke-dasharray:none;stroke-opacity:1;fill-opacity:1"
       inkscape:transform-center-x="2.5644874e-06"
       inkscape:transform-center-y="-4.8066944"
       d="m 162.41161,231.05326 16.65092,-28.84024 16.6509,28.84023 z"
       id="path5936"
       inkscape:connector-curvature="0" />
    <g
       id="g5953"
       transform="matrix(0.25037785,0.43366716,-0.43366716,0.25037785,230.26042,88.342671)"
       style="stroke:#000000;stroke-width:1.99698174;stroke-linejoin:round;stroke-opacity:1">
      <path
         inkscape:connector-curvature="0"
         id="path5938"
         d="m 179.06252,221.43983 1e-5,-19.22681 v 0 l -16.65092,28.84024 z"
         style="fill:#e6e6e6;stroke:#000000;stroke-width:1.99698174;stroke-linecap:butt;stroke-linejoin:round;stroke-opacity:1" />
      <path
         inkscape:connector-curvature="0"
         id="path5940"
         d="m 195.71343,231.05325 -16.6509,-28.84023 -1e-5,19.22681 z"
         style="fill:#f9f9f9;stroke:#000000;stroke-width:1.99698174;stroke-linecap:butt;stroke-linejoin:round;stroke-opacity:1" />
      <path
         inkscape:connector-curvature="0"
         id="path5942"
         d="m 195.71343,231.05325 -16.65091,-9.61342 -16.65091,9.61343 z"
         style="fill:#b3b3b3;stroke:#000000;stroke-width:1.99698174;stroke-linecap:butt;stroke-linejoin:round;stroke-opacity:1" />
    </g>
  </g>
</svg>
