<svg width="512.000000" height="512.000000" version="1.1" baseProfile="full" xmlns="http://www.w3.org/2000/svg">
<g transform="translate(0,512.000000) scale(1,-1)">
<polyline stroke="black" fill="none" points="256.000000,256.000000 123.472389,179.485148" />
<polyline stroke="black" fill="none" points="123.472389,179.485148 195.629992,179.485148" />
<polyline stroke="black" fill="none" points="316.517404,179.485148 388.527611,179.485148" />
<polyline stroke="black" fill="none" points="388.527611,179.485148 256.000000,256.000000" />
<polyline stroke="black" fill="none" points="256.000000,256.000000 123.472389,179.485148" />
<polyline stroke="black" fill="none" points="123.472389,179.485148 159.551190,241.975465" />
<polyline stroke="black" fill="none" points="219.994897,346.667036 256.000000,409.029704" />
<polyline stroke="black" fill="none" points="256.000000,409.029704 256.000000,256.000000" />
<polyline stroke="black" fill="none" points="256.000000,256.000000 388.527611,179.485148" />
<polyline stroke="black" fill="none" points="388.527611,179.485148 352.448810,241.975465" />
<polyline stroke="black" fill="none" points="292.005103,346.667036 256.000000,409.029704" />
<polyline stroke="black" fill="none" points="256.000000,409.029704 256.000000,256.000000" />
<polyline stroke="black" fill="none" points="123.472389,179.485148 195.629992,179.485148" />
<polyline stroke="black" fill="none" points="316.517404,179.485148 388.527611,179.485148" />
<polyline stroke="black" fill="none" points="388.527611,179.485148 352.448810,241.975465" />
<polyline stroke="black" fill="none" points="292.005103,346.667036 256.000000,409.029704" />
<polyline stroke="black" fill="none" points="256.000000,409.029704 219.921199,346.539387" />
<polyline stroke="black" fill="none" points="159.477492,241.847817 123.472389,179.485148" />
<polyline stroke="black" fill="none" points="412.623541,346.426643 99.376459,346.426643" />
<polyline stroke="black" fill="none" points="412.623541,346.426643 256.000000,75.146713" />
<polyline stroke="black" fill="none" points="99.376459,346.426643 256.000000,75.146713" />
<polyline stroke="black" fill="none" points="412.623541,346.426643 99.376459,346.426643" />
<polyline stroke="black" fill="none" points="99.376459,346.426643 256.000000,75.146713" />
<polyline stroke="black" fill="none" points="256.000000,75.146713 412.623541,346.426643" />
</g></svg>